<svg width="38" height="38" viewBox="0 0 38 38" fill="none" xmlns="http://www.w3.org/2000/svg">
<g clip-path="url(#clip0_64_829)">
<rect x="0.248291" y="0.533936" width="37.0474" height="37.0474" rx="18.5237" transform="rotate(-0.173721 0.248291 0.533936)" fill="#FF78B9"/>
<path d="M30.4549 43.9865C31.7059 41.343 28.3169 37.1165 22.8853 34.5459C17.4538 31.9753 12.0365 32.0344 10.7854 34.6779C9.53444 37.3212 12.9234 41.548 18.355 44.1186C23.7865 46.6889 29.2038 46.6298 30.4549 43.9865Z" fill="black"/>
<path d="M31.1137 29.368C29.5037 28.3718 29.4247 28.3984 28.5241 26.794C27.6235 25.1897 26.4883 24.4028 25.1705 24.2224L26.8398 36.0462C30.2676 37.0369 32.3699 35.2918 32.8389 33.5779C33.3079 31.8641 32.7501 30.3641 31.1137 29.368Z" fill="#2563EB"/>
<path d="M29.5114 30.9272C29.0577 29.0054 27.8654 26.7697 26.464 25.0879C25.9619 24.4803 25.6049 23.7662 25.42 22.9998C25.2351 22.2335 25.2271 21.4351 25.3968 20.6652L25.9684 18.029C26.3704 16.1993 26.1473 14.2877 25.3352 12.5996C24.5229 10.9115 23.1683 9.54432 21.4879 8.7165C20.5236 8.24534 19.4747 7.9709 18.4031 7.90916C16.3865 7.76758 14.3941 8.41736 12.8487 9.72053C11.3034 11.0237 10.3266 12.8778 10.1256 14.8893C10.0829 15.2301 10.0663 15.5736 10.076 15.9169L10.0795 17.0497L10.1465 21.7916C10.2102 23.9219 9.76502 26.0364 8.84799 27.9602C8.46725 28.7235 8.17805 29.5293 7.98589 30.3602L20.91 44.0204C27.0452 42.9743 30.8735 37.0351 29.5114 30.9272Z" fill="#2563EB"/>
<path d="M20.9364 44.0202C27.0452 42.9742 30.8736 37.035 29.5114 30.9271C29.0844 29.1106 27.9979 27.0063 26.7021 25.3769" stroke="black" stroke-width="1.26922" stroke-miterlimit="10" stroke-linecap="round"/>
<path d="M25.4029 31.3347C26.6086 29.3288 27.0836 29.5908 29.2457 30.1638C30.9858 30.6064 32.9988 34.1569 30.3434 35.9564C27.688 37.7559 22.2577 36.6922 25.4029 31.3347Z" fill="#2563EB"/>
<path d="M19.3792 25.4485C19.6215 25.262 19.6594 24.9054 19.4642 24.6515C19.269 24.3979 18.9145 24.3434 18.6725 24.5296C18.4304 24.716 18.3922 25.0726 18.5874 25.3262C18.7826 25.5801 19.1371 25.6347 19.3792 25.4485Z" fill="black"/>
<path d="M22.698 25.6441C22.9401 25.4579 22.9783 25.1011 22.7831 24.8474C22.5879 24.5938 22.2334 24.539 21.9911 24.7255C21.749 24.9117 21.7108 25.2685 21.906 25.5222C22.1012 25.7758 22.4557 25.8306 22.698 25.6441Z" fill="black"/>
<path d="M22.3546 25.2322C25.1805 27.542 24.0264 29.2052 26.3024 32.6231" stroke="white" stroke-width="1.26922" stroke-miterlimit="10" stroke-linecap="round"/>
<path d="M19.1827 30.4315C20.9178 29.2144 21.4437 28.8703 22.1023 28.8946L23.8152 29.0475L23.3885 36.0039L19.0412 35.8853L19.1827 30.4315Z" fill="#FFC619"/>
<path d="M27.6077 28.6411C27.6403 28.5491 27.6508 28.4505 27.6389 28.3536C27.627 28.2567 27.5928 28.1638 27.539 28.0823C27.4851 28.0008 27.4132 27.9328 27.3287 27.8838C27.244 27.8348 27.1494 27.8061 27.0519 27.7998L24.1527 27.3871C23.9424 27.3653 23.7307 27.4165 23.5538 27.5322C23.3766 27.6479 23.2446 27.8208 23.1798 28.0223L21.5648 34.0865C21.5325 34.1788 21.5217 34.2771 21.5336 34.374C21.5455 34.4709 21.5797 34.5638 21.6335 34.6453C21.6874 34.7268 21.7593 34.7949 21.844 34.8439C21.9285 34.8929 22.0231 34.9216 22.1206 34.9279L25.0198 35.3406C25.2304 35.3623 25.4418 35.3111 25.619 35.1955C25.7959 35.0798 25.9279 34.9068 25.9927 34.7054L27.6077 28.6411Z" fill="black"/>
<path d="M27.4741 28.0354L27.7914 28.4033L26.9223 28.485L27.4741 28.0354Z" fill="black"/>
<path d="M28.9089 32.0353C28.5383 31.4305 28.1935 30.6676 27.1919 30.5125L27.064 31.7775L28.9089 32.0353Z" fill="#FFC619"/>
<path d="M27.8985 28.9825C27.9259 28.8905 27.9327 28.7935 27.9184 28.6984C27.9042 28.6034 27.8694 28.5126 27.8165 28.4324C27.7635 28.3522 27.6938 28.2847 27.6119 28.2344C27.5301 28.1841 27.4381 28.1522 27.3427 28.1411L24.4171 27.7285C24.2077 27.7115 23.9981 27.7648 23.8222 27.8797C23.6461 27.9948 23.513 28.1649 23.4443 28.3637L21.8293 34.428C21.8019 34.52 21.7951 34.617 21.8094 34.712C21.8236 34.8071 21.8584 34.8979 21.9113 34.9781C21.9643 35.0582 22.034 35.126 22.1158 35.1761C22.1979 35.2264 22.2897 35.2583 22.3851 35.2693L25.3106 35.6556C25.5156 35.6887 25.7257 35.6446 25.9003 35.5324C26.0749 35.4199 26.2022 35.2472 26.2571 35.0468L27.8985 28.9825Z" fill="white"/>
<path d="M27.0101 31.3826L28.1961 31.5634C28.4365 31.5893 28.6568 31.7085 28.8102 31.8951C28.9635 32.0819 29.0372 32.3215 29.0158 32.562C29.0102 32.6872 28.9784 32.8098 28.9226 32.9219C28.8666 33.0338 28.7878 33.1331 28.6914 33.2127C28.5947 33.2926 28.4826 33.3511 28.3618 33.3847C28.2413 33.4185 28.1148 33.4265 27.9909 33.4082L27.1212 33.2791C26.851 33.2412 26.6009 33.115 26.4096 32.9203C26.2185 32.7254 26.0971 32.4732 26.0641 32.2022C26.0572 32.0815 26.0781 31.9608 26.1252 31.8495C26.1723 31.7382 26.2445 31.6392 26.3356 31.5598C26.4271 31.4808 26.5354 31.4236 26.6523 31.3929C26.7692 31.3623 26.8917 31.3587 27.0101 31.3826Z" fill="#FFC619"/>
<path d="M26.6202 33.149L27.4373 33.2783C27.5741 33.2952 27.7054 33.3415 27.8224 33.4141C27.9393 33.4867 28.0389 33.5842 28.1144 33.6991C28.1901 33.8142 28.2397 33.9445 28.2599 34.0806C28.28 34.2168 28.2702 34.3556 28.2313 34.4877C28.1759 34.7002 28.0421 34.884 27.8567 35.0018C27.6713 35.1196 27.4483 35.163 27.2322 35.123L26.7314 35.0455C26.4581 35.0087 26.2042 34.8835 26.0087 34.6892C25.8132 34.4948 25.6865 34.2417 25.648 33.9687C25.64 33.8451 25.6612 33.7218 25.7096 33.6078C25.7582 33.4941 25.8327 33.3933 25.9273 33.3134C26.0219 33.2338 26.1337 33.1774 26.2543 33.1488C26.3746 33.1203 26.5 33.1204 26.6202 33.149Z" fill="#FFC619"/>
<path d="M24.0739 36.1597L21.2275 35.7732L21.3557 34.6136L24.2022 35.0265L24.0739 36.1597Z" fill="#FFC619"/>
<path d="M24.7448 31.5477L22.9526 31.2897C22.8672 31.2783 22.787 31.2425 22.7212 31.1868C22.6557 31.1309 22.6075 31.0573 22.5828 30.9747L22.4233 30.5009L22.2886 29.5266L21.3242 32.9543L24.2234 33.3671C24.4933 33.4024 24.7671 33.3457 25.0009 33.2064C25.2347 33.0671 25.4148 32.8534 25.512 32.5992C25.543 32.4787 25.5468 32.3527 25.5235 32.2306C25.5 32.1084 25.4498 31.9929 25.3765 31.8925C25.3033 31.7918 25.2084 31.7088 25.0994 31.6494C24.9902 31.5896 24.8692 31.555 24.7448 31.5477Z" fill="#FFC619"/>
<path d="M24.1706 33.3406L21.3242 32.9541L21.4617 34.8505L23.6493 35.16C23.9162 35.199 24.1882 35.1434 24.4186 35.0033C24.6489 34.8633 24.8232 34.647 24.9115 34.3922C24.9472 34.2735 24.9555 34.1484 24.9359 34.0259C24.9161 33.9035 24.8686 33.7874 24.7974 33.686C24.7259 33.5848 24.6324 33.501 24.5237 33.441C24.4152 33.3813 24.2945 33.3469 24.1706 33.3406Z" fill="#FFC619"/>
<path d="M44.386 44.8976C44.4564 42.0522 42.1104 41.6114 40.5003 40.6152C38.8902 39.619 36.987 37.5171 35.0069 36.1005C33.0267 34.6839 31.3144 34.7154 27.9717 35.753L31.8142 43.1706C33.9778 44.2706 34.4557 45.481 35.6198 47.1108C36.784 48.7407 38.3402 49.3683 39.8937 49.0738C40.7144 50.4149 40.8734 50.7305 42.0577 50.3054C43.2419 49.8803 45.1887 48.9787 45.7109 47.4227C46.2331 45.8668 45.4683 45.6057 44.386 44.8976Z" fill="#66BCFF"/>
<path d="M31.6427 38.7977C31.2921 39.9298 31.0662 41.0965 30.9683 42.2773" stroke="black" stroke-width="2.53843" stroke-miterlimit="10" stroke-linecap="round"/>
<path d="M33.2387 52.4925C30.8479 54.66 28.8175 54.0603 27.8688 53.9578C26.9201 53.8553 27.0234 53.17 26.9426 52.5906C26.8618 52.0113 26.8065 51.1421 26.8065 51.1421C24.4086 50.9913 24.1139 49.3588 24.0568 47.91C23.9997 46.4612 23.6302 46.2516 23.4427 45.2247C20.5506 44.7142 17.8151 43.5449 15.4477 41.8067C13.0804 40.0688 11.1453 37.8087 9.79201 35.2023L12.2892 33.3769L17.8853 36.9956C21.6484 35.5879 23.7275 34.8703 25.7556 34.7324C27.7837 34.5945 29.7883 35.3524 30.4554 38.1693C31.1226 40.9862 31.2043 41.8553 31.8143 43.1971C31.9734 43.5391 32.2382 44.0125 32.5032 44.5122C33.2454 46.0116 34.0158 48.1169 32.5211 50.4134C32.7063 51.1239 32.9464 51.8192 33.2387 52.4925Z" fill="#8CD9FF"/>
<path d="M13.8916 40.5112C13.8069 38.641 14.5142 37.3216 15.8044 37.1069L12.5308 34.8512L10.1629 35.8858C10.7739 37.5701 12.3339 39.4095 13.8916 40.5112Z" fill="black"/>
<path d="M19.2342 30.0625C18.4682 29.4062 17.8888 29.4607 16.9679 29.8587C15.9904 28.9659 14.7255 28.838 13.4096 29.2899C12.0937 29.7417 10.067 30.3538 8.88248 30.6735C8.81643 30.6985 8.74453 30.7037 8.67546 30.6889C8.60639 30.6738 8.54306 30.6395 8.49285 30.5899C8.44291 30.54 8.40821 30.4768 8.39298 30.4079C8.37749 30.3389 8.38254 30.267 8.40684 30.2008L9.26663 27.0368C6.45414 29.1529 5.54574 33.6606 6.44888 36.108C7.35203 38.5553 11.251 38.5171 12.4871 37.8284C13.7232 37.1397 14.1441 36.9277 15.5675 37.1868C16.9909 37.4459 18.0979 37.627 19.9641 36.1987L21.0695 35.8265C21.4837 33.4279 21.1096 31.6902 19.2342 30.0625Z" fill="#2563EB"/>
<path d="M19.2344 30.0625C18.4684 29.4062 17.889 29.4606 16.9681 29.8586C15.9907 28.9658 14.7257 28.8379 13.4098 29.2898C12.094 29.7416 10.0673 30.3537 8.88272 30.6734" stroke="black" stroke-width="1.26922" stroke-miterlimit="10" stroke-linecap="round"/>
<path d="M16.9679 29.8589C17.7567 30.4659 18.4142 31.2263 18.9013 32.0939C19.3884 32.9618 19.6948 33.9193 19.8021 34.9085" stroke="black" stroke-width="1.26922" stroke-miterlimit="10" stroke-linecap="round"/>
<path d="M24.9482 29.0442C24.9599 29.0078 24.9637 28.9693 24.9591 28.9311C24.9546 28.8932 24.9418 28.8566 24.9214 28.8243C24.9013 28.7917 24.8743 28.7638 24.8424 28.7429C24.8105 28.7219 24.7743 28.708 24.7364 28.7023L24.4729 28.7031C24.3996 28.6873 24.323 28.7007 24.2594 28.7401C24.1955 28.7796 24.1496 28.8422 24.1311 28.9149L23.8966 29.785C23.8846 29.8235 23.8816 29.8641 23.8878 29.9039C23.8939 29.9436 23.9091 29.9813 23.9318 30.0144C23.9548 30.0472 23.9852 30.0746 24.0203 30.0942C24.0554 30.1136 24.0947 30.1248 24.1348 30.1268L24.3982 30.126C24.4675 30.1347 24.5375 30.1179 24.5956 30.079C24.6535 30.0401 24.6955 29.9818 24.7137 29.9143L24.9482 29.0442Z" fill="#29CC7A"/>
<path d="M20.7175 23.9987C20.9199 23.5858 21.2194 23.2282 21.59 22.9564C21.9609 22.6846 22.3922 22.5067 22.8467 22.4379C22.8994 22.4377 22.9256 22.385 22.8991 22.3587C22.5528 21.0952 22.7087 20.3834 23.1538 19.46C23.1583 19.4533 23.1611 19.4457 23.1622 19.4377C23.1632 19.4297 23.1624 19.4216 23.16 19.414C23.1573 19.4064 23.1531 19.3994 23.1473 19.3937C23.1417 19.388 23.1349 19.3837 23.1272 19.381C21.65 18.7532 21.0936 17.7011 20.9331 16.9113C20.9066 16.8587 20.8275 16.8325 20.8013 16.8853C20.1467 18.2045 19.2511 18.2599 18.4868 18.1569C18.4341 18.157 18.4079 18.2098 18.4343 18.2361C19.2028 19.7091 18.6528 20.7645 17.891 21.5045C17.8871 21.5148 17.885 21.5259 17.8856 21.5371C17.8861 21.5482 17.8891 21.559 17.8941 21.569C17.8991 21.5789 17.906 21.5877 17.9147 21.5947C17.9232 21.6017 17.9332 21.6068 17.944 21.6097C19.4201 21.8687 20.2134 22.841 20.5857 23.9727C20.6122 24.0253 20.6913 24.0514 20.7175 23.9987Z" fill="#FFC619"/>
<path d="M24.1707 33.341L22.6685 33.1348" stroke="black" stroke-width="1.26922" stroke-miterlimit="10" stroke-linecap="round"/>
<path d="M26.9103 33.2534L27.7537 33.3826" stroke="black" stroke-width="1.26922" stroke-miterlimit="10" stroke-linecap="round"/>
<path d="M20.8802 16.8587C21.5343 15.3814 21.4785 14.3541 21.2924 13.7751" stroke="black" stroke-width="1.26922" stroke-miterlimit="10" stroke-linecap="round"/>
<path d="M22.9956 19.434C23.4068 19.4958 23.8267 19.4683 24.2262 19.3534C24.6261 19.2386 24.9964 19.039 25.312 18.7684" stroke="black" stroke-width="1.26922" stroke-miterlimit="10" stroke-linecap="round"/>
<path d="M20.7175 23.9988C20.7202 24.1948 20.6941 24.3903 20.6402 24.5786" stroke="black" stroke-width="1.26922" stroke-miterlimit="10" stroke-linecap="round"/>
<path d="M18.0229 21.5305C17.0502 22.2184 15.5746 22.1175 14.5462 21.8045" stroke="black" stroke-width="1.26922" stroke-miterlimit="10" stroke-linecap="round"/>
<path d="M18.4868 18.1571C18.1157 17.3942 17.4281 16.5269 16.7949 16.239" stroke="black" stroke-width="1.26922" stroke-miterlimit="10" stroke-linecap="round"/>
<path d="M22.8993 22.3589C23.2397 22.5392 23.6036 22.6712 23.9806 22.7508" stroke="black" stroke-width="1.26922" stroke-miterlimit="10" stroke-linecap="round"/>
<path d="M20.0718 19.5484C20.5249 21.2858 21.1041 21.1787 21.366 20.651C21.6278 20.1233 21.8103 19.4641 22.2319 19.5155C22.6536 19.567 22.5505 20.3049 22.0531 21.3602C21.5558 22.4155 20.7398 22.6551 19.973 21.7354C19.2062 20.8156 19.1772 19.92 19.1489 19.2878C19.1206 18.6556 19.7788 18.4955 20.0718 19.5484Z" fill="#C40655"/>
<path d="M19.0346 25.0315C19.3617 28.6661 17.5229 30.4104 16.9542 34.0214" stroke="white" stroke-width="1.26922" stroke-miterlimit="10" stroke-linecap="round"/>
<path d="M23.232 45.2515C22.7531 43.6986 22.5337 40.854 23.817 38.3474" stroke="black" stroke-width="2.53843" stroke-miterlimit="10" stroke-linecap="round"/>
<path d="M9.9091 30.3806L7.96151 31.0187" stroke="black" stroke-width="1.26922" stroke-miterlimit="10" stroke-linecap="round"/>
<path d="M29.2719 30.085L30.5902 30.4498" stroke="black" stroke-width="1.26922" stroke-miterlimit="10" stroke-linecap="round"/>
</g>
<defs>
<clipPath id="clip0_64_829">
<rect x="0.248291" y="0.533936" width="37.0474" height="37.0474" rx="18.5237" transform="rotate(-0.173721 0.248291 0.533936)" fill="white"/>
</clipPath>
</defs>
</svg>
