<svg width="39" height="38" viewBox="0 0 39 38" fill="none" xmlns="http://www.w3.org/2000/svg">
<g clip-path="url(#clip0_64_827)">
<rect x="0.961182" y="0.518799" width="37.0474" height="37.0474" rx="18.5237" transform="rotate(-0.173721 0.961182 0.518799)" fill="#2563EB"/>
<path d="M9.22414 15.0528C8.13315 11.4732 7.54837 9.76259 9.49468 8.70289C11.441 7.6432 17.3707 8.33653 20.1389 8.98676C22.9071 9.63699 23.3043 10.3208 21.4948 13.0398L9.22414 15.0528Z" fill="#FFF4B3"/>
<path d="M8.05738 47.2762C7.60359 36.6342 7.8402 27.7816 8.16838 23.0649C6.39978 21.911 5.58037 21.0178 5.23638 20.5183C5.16495 20.4221 5.12824 20.3044 5.13288 20.1846C5.13726 20.0649 5.18223 19.9502 5.26073 19.8596C8.04264 16.3473 10.4307 13.284 12.9292 11.8538C15.4276 10.4236 18.8513 10.0444 24.3211 15.4549C24.3735 15.5242 24.3995 15.6098 24.3951 15.6965C24.3906 15.7835 24.3555 15.8658 24.2962 15.9292C23.8644 16.3604 23.4083 16.7665 22.9299 17.1452C24.0424 19.1177 25.6585 22.1161 25.6585 22.1161L26.9231 22.1123C27.7334 22.1098 28.5118 22.4294 29.0866 23.0009C29.6616 23.5722 29.9859 24.3484 29.9883 25.159C30.0221 27.609 29.4515 30.5613 28.3301 34.3584C33.4008 38.4528 32.189 47.1767 32.189 47.1767L8.05738 47.2762Z" fill="#29CC7A"/>
<path d="M28.3303 34.3584C28.4867 33.8047 28.6432 33.3037 28.7734 32.7764L24.802 35.0014C24.802 35.0014 18.4928 30.779 7.9206 28.1766C7.75105 33.0772 7.74483 39.7162 8.05754 47.2762L32.1893 47.2031C32.1893 47.2031 33.4009 38.4529 28.3303 34.3584Z" fill="#8CD9FF"/>
<path d="M29.3344 35.3299C29.0261 34.9797 28.6903 34.6548 28.3303 34.3582C28.4867 33.8045 28.6433 33.3035 28.7734 32.7762L24.802 35.0012C24.802 35.0012 18.4928 30.7788 7.92061 28.1764C7.8961 28.7824 7.87175 29.4411 7.87375 30.0997C15.9717 33.4209 20.336 39.1509 20.8611 47.2372L26.8413 47.219C27.881 42.5792 28.7118 38.5196 29.3344 35.3299Z" fill="#BAE8FF"/>
<path d="M11.0988 25.0846L11.2042 25.0843C11.2567 25.0314 11.3094 25.0049 11.3355 24.9258L13.605 17.516C13.6202 17.4849 13.6288 17.4509 13.6295 17.4161C13.6301 17.3816 13.6235 17.3471 13.6094 17.3155C13.5956 17.2837 13.5747 17.2553 13.5488 17.2324C13.5227 17.2096 13.4921 17.1928 13.4586 17.1832C13.4253 17.1735 13.3903 17.1713 13.3561 17.1764C13.3218 17.1818 13.2892 17.1945 13.2603 17.2138C13.2316 17.2331 13.2075 17.2585 13.1894 17.2883C13.1715 17.3179 13.1603 17.3511 13.1567 17.3856L10.9655 24.5581C10.0082 24.1532 9.08968 23.662 8.2212 23.0911L8.16851 23.0913C8.16899 23.2493 8.1432 23.4338 8.14368 23.5919C9.05566 24.1748 10.0182 24.6745 11.0198 25.0848L11.0988 25.0846Z" fill="black"/>
<path d="M20.863 13.1469L11.4337 13.8605C21.9777 15.8307 22.4264 16.1192 20.863 13.1469Z" fill="black"/>
<path d="M18.5266 20.0066C18.8902 19.8585 18.9537 19.1701 18.6681 18.4694C18.3825 17.769 17.8564 17.3212 17.4925 17.4693C17.1286 17.6176 17.0653 18.3057 17.3509 19.0064C17.6363 19.7071 18.1627 20.1549 18.5266 20.0066Z" fill="black"/>
<path d="M21.2469 21.455C21.714 20.5663 21.6542 19.6154 21.1132 19.3312C20.5723 19.0468 19.7553 19.5369 19.288 20.4253C18.8209 21.3141 18.881 22.2649 19.4216 22.5494C19.9626 22.8336 20.7799 22.3437 21.2469 21.455Z" stroke="white" stroke-width="1.26922" stroke-miterlimit="10"/>
<path d="M25.1264 21.4488C25.5934 20.5604 25.5336 19.6095 24.9927 19.325C24.4518 19.0408 23.6347 19.5307 23.1677 20.4194C22.7007 21.3081 22.7604 22.259 23.3014 22.5432C23.8423 22.8274 24.6594 22.3375 25.1264 21.4488Z" stroke="white" stroke-width="1.26922" stroke-miterlimit="10"/>
<path d="M22.4568 19.8675C22.6995 19.7688 22.6736 19.1426 22.3989 18.4688C22.1244 17.7952 21.7052 17.3291 21.4626 17.4281C21.2202 17.5268 21.2461 18.1529 21.5206 18.8268C21.7953 19.5004 22.2145 19.9665 22.4568 19.8675Z" fill="black"/>
<path d="M24.9878 26.7547C22.9537 26.7675 20.9779 26.0753 19.3967 24.7958C17.7593 23.4572 18.4174 23.2971 19.4448 23.2677C20.4721 23.2382 25.3991 23.4077 26.8224 23.6141C28.2456 23.8206 28.5176 26.6387 24.9878 26.7547Z" fill="#912869"/>
<path d="M24.9878 26.7547C22.9537 26.7675 20.9779 26.0753 19.3967 24.7958C17.7593 23.4572 18.4174 23.2971 19.4448 23.2677C20.4721 23.2382 25.3991 23.4077 26.8224 23.6141C28.2456 23.8206 28.5176 26.6387 24.9878 26.7547Z" fill="#611B46"/>
<path d="M24.8912 29.7058L24.7828 28.7314C25.5269 28.6699 26.2515 28.4617 26.9149 28.119" stroke="black" stroke-width="1.26922" stroke-linecap="round" stroke-linejoin="round"/>
<path d="M25.9619 26.6203C24.5352 25.2546 22.6089 24.233 19.0531 24.4809C22.1176 27.2905 25.3039 26.8067 25.9619 26.6203Z" fill="#EB459F"/>
<path d="M21.4124 20.522L23.0194 20.5171" stroke="white" stroke-width="1.26922" stroke-miterlimit="10"/>
<path d="M18.9896 20.8453L12.1843 18.0997C12.0416 18.0448 11.8877 18.0255 11.736 18.0428C11.584 18.0604 11.4388 18.1143 11.312 18.2001C11.1856 18.2858 11.0816 18.401 11.0093 18.5356C10.9367 18.6702 10.8979 18.8202 10.896 18.973C10.8934 19.1529 10.9451 19.3293 11.0443 19.4794C11.1433 19.6293 11.2854 19.7461 11.4518 19.8143L11.9003 20.0237" stroke="white" stroke-width="1.26922" stroke-miterlimit="10" stroke-linecap="round"/>
<path d="M17.5565 17.3985C18.0911 17.4106 18.6246 17.3378 19.1366 17.183" stroke="black" stroke-width="1.26922" stroke-miterlimit="10" stroke-linecap="round"/>
<path d="M21.5082 17.3868C21.8452 17.3945 22.1793 17.3213 22.4823 17.1731" stroke="black" stroke-width="1.26922" stroke-miterlimit="10" stroke-linecap="round"/>
<path d="M10.1173 14.1278C19.522 13.9676 22.7065 12.9042 25.3907 11.9213C28.0749 10.9384 27.8091 10.1752 25.7545 10.2604C23.6998 10.3457 16.6739 13.0542 10.1173 14.1278Z" fill="#FFF4B3"/>
<path d="M10.1172 14.1281L13.3305 13.8549L21.0448 12.3035L19.1159 10.4126L9.92163 10.4404L10.1172 14.1281Z" fill="#FFF4B3"/>
<path d="M25.7163 23.8019L23.8718 23.7021C24.0859 24.808 24.6146 25.386 25.0619 25.2002C25.5092 25.0144 25.6643 24.0392 25.7163 23.8019Z" fill="white"/>
<path d="M20.0251 23.5823C20.2661 24.8461 20.7423 25.5033 21.1895 25.2912C21.6367 25.079 21.7389 24.0249 21.8167 23.6032L20.0251 23.5823Z" fill="white"/>
<path d="M22.1213 11.0617C18.0641 12.1619 13.9512 13.045 9.7999 13.7072" stroke="#FFC619" stroke-width="2.53843" stroke-miterlimit="10" stroke-linecap="round"/>
</g>
<defs>
<clipPath id="clip0_64_827">
<rect x="0.961182" y="0.518799" width="37.0474" height="37.0474" rx="18.5237" transform="rotate(-0.173721 0.961182 0.518799)" fill="white"/>
</clipPath>
</defs>
</svg>
