<svg width="38" height="38" viewBox="0 0 38 38" fill="none" xmlns="http://www.w3.org/2000/svg">
<g clip-path="url(#clip0_64_828)">
<rect x="0.796997" y="0.835938" width="37.0474" height="37.0474" rx="18.5237" transform="rotate(-0.173721 0.796997 0.835938)" fill="#7196FF"/>
<path d="M14.7279 32.4614L13.9166 33.2708L19.8442 39.1128L20.6556 38.3032L14.7279 32.4614Z" fill="#2E3338"/>
<path d="M18.4229 32.4587L17.6115 33.2681L23.539 39.1099L24.3505 38.3005L18.4229 32.4587Z" fill="#2E3338"/>
<path d="M25.0776 31.4245C26.6034 29.8953 27.5444 27.8871 27.7389 25.7449C27.9333 23.6024 27.369 21.4599 26.1431 19.6855L22.2977 14.1145L17.7685 14.1283L17.7901 21.2491C17.792 21.8677 17.5459 22.4616 17.1062 22.9004C16.6663 23.339 16.0688 23.5865 15.4449 23.5884L8.16318 23.6105L8.16807 25.2233C8.17526 27.5946 9.13047 29.866 10.8242 31.54C12.5179 33.214 14.8122 34.1536 17.2036 34.1528L18.5298 34.1488C20.9869 34.1209 23.3361 33.1436 25.0776 31.4245V31.4245Z" fill="#FFD836"/>
<path d="M22.2897 11.5095C23.4908 11.5058 24.6443 11.9755 25.4963 12.8151C26.3481 13.6547 26.8288 14.7955 26.8324 15.9866L26.836 17.1527L17.7775 17.1802L17.7739 15.9892C17.777 14.8025 18.2537 13.6651 19.0999 12.8257C19.9459 11.9863 21.0928 11.5131 22.2897 11.5095V11.5095Z" fill="#FFD836"/>
<path d="M28.157 15.4861C28.3757 15.6993 28.5485 15.954 28.6655 16.235C28.7825 16.5161 28.8411 16.8176 28.8376 17.1216L24.5086 17.1348C24.3477 17.1321 24.191 17.0828 24.058 16.993C23.9249 16.9033 23.8212 16.7769 23.7597 16.6295C23.6981 16.4821 23.6812 16.32 23.7113 16.1632C23.7414 16.0065 23.8169 15.8618 23.9288 15.7471L24.802 14.876L24.7983 13.6355C24.7976 13.4752 24.8597 13.3209 24.9711 13.2049C25.0828 13.0889 25.2354 13.0203 25.3969 13.0134C25.5619 13.0217 25.7198 13.0821 25.8479 13.1857L28.157 15.4861Z" fill="#FF9A15"/>
<path d="M22.2896 11.5095L20.9633 11.5135C19.331 11.5164 17.7638 10.8789 16.6039 9.74026L15.951 9.02271L15.9524 9.46932C15.9568 10.917 16.541 12.3036 17.5766 13.3242C18.612 14.3447 20.014 14.9155 21.4741 14.9111L22.2748 14.9087L22.2896 11.5095Z" fill="#FFD836"/>
<path d="M15.8647 13.5635L19.493 13.5525L19.5039 17.1501L15.8647 13.5635Z" fill="#FFD836"/>
<path d="M10.2753 27.0777C10.9563 28.5089 12.1672 29.6248 13.6565 30.1936C15.1457 30.7625 16.7988 30.7407 18.2722 30.1325C19.7456 29.5245 20.9262 28.3769 21.5686 26.9282C22.211 25.4796 22.2658 23.8413 21.7217 22.3537L10.2753 27.0777Z" fill="#FF9A15"/>
<path d="M4.14709 19.6528L6.98365 22.572C7.35594 22.9342 7.6523 23.366 7.85556 23.8422C8.059 24.3187 8.16522 24.8301 8.16815 25.3473L10.195 25.3411L10.1908 23.927C10.186 23.1367 9.91711 22.3703 9.42621 21.7477C8.93531 21.1252 8.25013 20.6816 7.47778 20.4864L4.14709 19.6528Z" fill="#FFD836"/>
<path d="M9.49174 24.4997L9.26722 24.7236C9.17511 24.8118 9.05884 24.8711 8.9329 24.894C8.80696 24.9169 8.67698 24.9026 8.55935 24.8526C8.44156 24.8026 8.34142 24.7192 8.27126 24.6131C8.20111 24.5069 8.16402 24.3825 8.16483 24.2555L8.14505 17.7302L9.47519 19.0413C10.1988 19.7675 10.6059 20.7461 10.609 21.767C10.6121 22.7879 10.2109 23.7692 9.49174 24.4997V24.4997Z" fill="#FFD836"/>
<path d="M22.5751 14.9079C22.893 14.9069 23.1499 14.6507 23.149 14.3355C23.148 14.0203 22.8896 13.7656 22.5717 13.7666C22.2537 13.7675 21.9969 14.0238 21.9978 14.339C21.9988 14.6541 22.2572 14.9088 22.5751 14.9079Z" fill="#202225"/>
</g>
<defs>
<clipPath id="clip0_64_828">
<rect x="0.796997" y="0.835938" width="37.0474" height="37.0474" rx="18.5237" transform="rotate(-0.173721 0.796997 0.835938)" fill="white"/>
</clipPath>
</defs>
</svg>
