<svg width="38" height="38" viewBox="0 0 38 38" fill="none" xmlns="http://www.w3.org/2000/svg">
<g clip-path="url(#clip0_64_826)">
<rect x="0.719727" y="0.458252" width="37.0474" height="37.0474" rx="18.5237" transform="rotate(-0.173721 0.719727 0.458252)" fill="#FFE75C"/>
<path d="M29.2698 38.0321C29.4035 38.567 29.4136 39.1255 29.2993 39.6648C29.1853 40.2045 28.9497 40.7107 28.6109 41.1459C28.2721 41.5808 27.8388 41.9333 27.3437 42.1762C26.8486 42.419 26.305 42.546 25.7533 42.5477L18.2187 42.5705L14.6945 44.5571L14.6942 44.4517C13.0872 44.4566 12.1638 43.9325 12.8572 38.0291C12.536 36.3704 11.0409 29.8414 10.2095 24.9701C9.45833 20.5201 11.1131 18.8817 15.6892 16.286C17.6212 10.4843 22.6801 10.8114 23.6654 14.2859C24.6507 17.7605 27.9096 32.5301 29.2698 38.0321Z" fill="#66BCFF"/>
<path d="M29.2698 38.0322C28.5763 35.189 27.3484 29.9238 26.2007 25.0008L20.2981 24.5708L15.7505 27.7987L13.1267 31.3368L11.7887 33.1587C12.2697 35.4229 12.6702 37.2658 12.8307 38.0557C12.1373 43.9591 13.0609 44.4832 14.668 44.4783L19.3252 42.4883L30.1242 41.6915C29.8572 40.5068 29.5634 39.2695 29.2698 38.0322Z" fill="#EB459F"/>
<path d="M17.187 35.103C17.5133 33.1367 17.3359 31.4691 16.7903 31.3785C16.245 31.288 15.5382 32.8086 15.2117 34.7752C14.8852 36.7416 15.0628 38.4089 15.6082 38.4995C16.1535 38.59 16.8605 37.0694 17.187 35.103Z" fill="black"/>
<path d="M13.7291 30.2284C13.9911 29.7534 14.2798 29.2783 14.5683 28.8559C17.5322 24.5527 20.321 23.3851 23.0081 23.3769L26.3539 23.3668C26.4039 23.368 26.4527 23.381 26.4968 23.4046C26.5406 23.4282 26.5784 23.462 26.6067 23.503C26.635 23.544 26.6533 23.5911 26.6601 23.6407C26.6668 23.6902 26.6617 23.7405 26.6452 23.7874L26.2008 25.0007C21.0636 25.0162 19.2453 24.8637 14.991 29.3552L13.1268 31.3367L13.7291 30.2284Z" fill="#D11583"/>
<path d="M14.9915 29.5133C13.2273 29.8348 11.8339 30.7611 11.0485 32.3969C10.8254 32.8507 10.5026 33.2479 10.1036 33.5589L5.37201 37.0245C4.8402 37.4044 4.47046 37.9701 4.33567 38.6096C4.20114 39.2492 4.31144 39.9159 4.64483 40.4779C4.87733 40.8723 5.20947 41.1985 5.6077 41.4239C6.00619 41.6492 6.45678 41.7659 6.91438 41.7619L8.89023 41.7559C12.993 39.4514 14.8852 37.8913 15.8572 36.9927C16.8292 36.094 17.9045 34.4837 17.7145 32.6401C17.5245 30.7966 16.9926 29.1385 14.9915 29.5133Z" fill="white"/>
<path d="M16.4253 15.8889C15.7899 14.837 14.9426 13.4433 14.6245 12.7856C14.3064 12.128 13.5428 12.2884 14.6319 15.2357C11.9944 14.2426 11.4423 14.6131 11.3117 14.9823C11.1811 15.3515 11.7612 15.5342 12.8696 16.1631C13.978 16.792 15.1658 17.5524 15.1658 17.5524L16.4253 15.8889Z" fill="#66BCFF"/>
<path d="M19.1655 15.9594C19.6117 15.4048 19.7682 14.7984 19.5041 14.5885C19.24 14.3785 18.9503 14.4848 18.5567 15.0128C18.3869 15.2275 18.2029 15.4307 18.0053 15.6205C17.5587 16.0433 17.6651 16.3591 17.8764 16.5429C18.0877 16.7267 18.7194 16.514 19.1655 15.9594Z" fill="black"/>
<path d="M23.6391 14.3125C23.6391 14.3125 20.4998 12.8994 19.1536 12.0341C17.8074 11.1688 17.1185 9.88003 17.7234 9.53571C18.3283 9.19139 19.4902 10.0046 20.3101 11.0559C20.278 9.18548 20.593 8.78938 21.0934 8.76151C21.5939 8.73365 21.6486 9.47112 21.6781 10.5248C21.7077 11.5785 21.8936 11.9995 22.6861 12.7084C23.1605 13.133 23.4931 13.6928 23.6391 14.3125Z" fill="#2563EB"/>
<path d="M12.1534 23.0939C11.4158 23.0961 10.7816 22.4658 11.3578 21.3575C11.934 20.2493 13.8272 19.1371 14.748 18.7128C15.6688 18.2884 16.0919 18.7087 16.1192 19.0247C16.1465 19.3408 16.0159 19.8154 15.3599 20.6604C14.7038 21.5054 13.497 23.0898 12.1534 23.0939Z" fill="white"/>
<path d="M12.7324 23.0129L12.285 23.0933L11.6462 20.935L12.0138 20.5387L12.7324 23.0129Z" fill="#8CD9FF"/>
<path d="M14.3623 21.849L13.9948 22.2189L13.2488 19.5603L13.6432 19.2957L14.3623 21.849Z" fill="#8CD9FF"/>
<path d="M15.8323 20.0003L15.491 20.4755L14.9585 18.633L15.4061 18.5526L15.8323 20.0003Z" fill="#8CD9FF"/>
<path d="M15.2473 18.3162C15.7357 18.5476 16.2379 18.7486 16.7511 18.9175" stroke="black" stroke-width="1.26922" stroke-linecap="round" stroke-linejoin="round"/>
<path d="M27.0278 28.4759C26.5224 28.0775 25.9039 27.8488 25.261 27.8226C23.8911 27.8267 23.1312 29.1726 22.8716 30.4643C22.8298 30.6715 22.7184 30.8579 22.5558 30.9927C22.3931 31.1276 22.1892 31.2022 21.9781 31.2047L21.7937 31.2053C21.6748 31.1837 21.5614 31.1385 21.4606 31.0719C21.3595 31.0056 21.2731 30.9194 21.2064 30.8187C21.1397 30.718 21.0938 30.6049 21.0721 30.4861C21.0501 30.3671 21.0526 30.2451 21.0791 30.1273C21.5721 27.623 23.2006 26.011 25.2555 26.0048C25.5953 26.008 25.9242 26.1266 26.1883 26.3413C26.4522 26.5557 26.6354 26.8537 26.708 27.1859L27.0278 28.4759Z" fill="white"/>
<path d="M29.2699 38.0321C29.3288 38.2674 29.3391 38.5124 29.3003 38.7517C29.2615 38.9913 29.1747 39.2205 29.0447 39.4254C28.9146 39.6302 28.7444 39.8064 28.5444 39.9435C28.3443 40.0808 28.1183 40.1758 27.8805 40.2229L27.2221 40.2776C25.7204 40.2822 24.1631 39.3912 22.9465 37.8405C22.8738 37.7438 22.8205 37.6338 22.7901 37.5167C22.7597 37.3993 22.7528 37.2773 22.7695 37.1574C22.7863 37.0375 22.8265 36.9219 22.8878 36.8177C22.9492 36.7132 23.0306 36.622 23.1273 36.549C23.2224 36.4726 23.3324 36.4164 23.4501 36.3839C23.5677 36.3517 23.691 36.3437 23.812 36.3604C23.9329 36.3775 24.049 36.4187 24.1535 36.4824C24.2577 36.5459 24.3481 36.6299 24.4185 36.7295C25.2648 37.8071 26.2945 38.4626 27.2165 38.4598C28.1386 38.457 28.6903 37.9285 29.0833 37.2423C29.1369 37.5319 29.2165 37.7951 29.2699 38.0321Z" fill="#2331B5"/>
<path d="M27.4819 30.5029C27.2959 30.5045 27.1151 30.5638 26.9642 30.6728C26.8136 30.7818 26.7005 30.9352 26.6407 31.1114L25.5433 34.0917C25.4474 34.3715 25.4505 34.6758 25.552 34.9537C25.6537 35.2316 25.8475 35.466 26.1012 35.618C26.216 35.688 26.3452 35.7316 26.4788 35.7449C26.6127 35.7585 26.7478 35.7414 26.8743 35.6955C27.0007 35.6495 27.115 35.5757 27.2091 35.4795C27.3031 35.3833 27.3741 35.2672 27.417 35.1398L28.1227 33.2145C27.9356 32.3457 27.7219 31.4506 27.4819 30.5029Z" fill="#5865F2"/>
<path d="M26.1012 35.618C25.8476 35.466 25.6537 35.2316 25.552 34.9537C25.4505 34.6758 25.4475 34.3715 25.5433 34.0917L25.857 33.2741C25.9095 33.1314 25.9924 33.0018 26.0995 32.894C26.207 32.7864 26.3363 32.7033 26.4787 32.6502C26.6213 32.5973 26.7735 32.5758 26.9253 32.5872C27.0768 32.5986 27.2242 32.6426 27.357 32.7163C27.5742 32.8423 27.7407 33.0397 27.8279 33.2752C27.915 33.5105 27.9176 33.7686 27.8351 34.0057L27.417 35.1398C27.3742 35.2672 27.3031 35.3833 27.2091 35.4795C27.1151 35.5757 27.0007 35.6495 26.8744 35.6955C26.7478 35.7415 26.6127 35.7585 26.4788 35.7449C26.3452 35.7316 26.216 35.6883 26.1012 35.618Z" fill="#FFE75C"/>
</g>
<defs>
<clipPath id="clip0_64_826">
<rect x="0.719727" y="0.458252" width="37.0474" height="37.0474" rx="18.5237" transform="rotate(-0.173721 0.719727 0.458252)" fill="white"/>
</clipPath>
</defs>
</svg>
