<svg width="38" height="38" viewBox="0 0 38 38" fill="none" xmlns="http://www.w3.org/2000/svg">
<g clip-path="url(#clip0_64_830)">
<rect x="0.697754" y="0.614258" width="37.0474" height="37.0474" rx="18.5237" transform="rotate(-0.173721 0.697754 0.614258)" fill="url(#paint0_linear_64_830)"/>
<path d="M34.3501 15.3187C36.2676 7.9349 37.1958 6.62355 41.6837 16.1277L34.3501 15.3187Z" fill="#D4E1FF"/>
<path d="M16.0315 31.1368L15.8555 31.2893C18.5332 33.7994 22.61 40.2573 28.7805 39.9122C28.7805 39.9122 33.7964 49.012 39.1601 47.9891C44.5237 46.9651 48.4805 39.3987 48.4805 39.3987C49.9259 36.7869 50.9463 33.9618 51.5036 31.0293C51.4261 30.3503 51.1726 29.8217 50.6932 29.4958C46.8558 26.9648 18.8219 29.0896 16.0315 31.1368V31.1368Z" fill="#1C1B29"/>
<path d="M24.1127 12.4285L29.7349 13.9219C31.4044 13.2022 33.205 12.837 35.023 12.8492C43.5881 12.8233 48.1691 19.759 48.195 28.2946C48.2209 36.8311 43.682 43.7946 35.1169 43.8205C26.5507 43.8465 21.9952 36.9107 21.9693 28.3741C21.9604 27.1171 22.0575 25.8616 22.2598 24.621C22.8302 21.3453 22.666 17.9822 21.7761 14.7772C21.6895 14.4533 21.6895 14.1122 21.7759 13.7882C21.8624 13.4642 22.0324 13.1686 22.2689 12.9308C22.5054 12.6931 22.8002 12.5216 23.1237 12.4334C23.4473 12.3453 23.7883 12.3435 24.1127 12.4285V12.4285Z" fill="#B3CAFF"/>
<path d="M47.9043 31.9981C43.7527 33.8485 39.4643 31.9217 35.3255 29.568C30.8076 26.9881 27.8902 20.4246 26.6497 18.3386C25.4093 16.2515 23.6437 15.8551 22.4259 12.8123C22.1382 13.0412 21.9236 13.3491 21.8083 13.6982C21.6931 14.0472 21.6822 14.4224 21.777 14.7776C22.6662 17.9827 22.8311 21.3456 22.2597 24.6223C22.0575 25.8626 21.9603 27.1178 21.9692 28.3744C21.9951 36.911 26.5761 43.8468 35.1168 43.8209C42.3978 43.7988 46.7661 38.7492 47.9043 31.997L47.9043 31.9981Z" fill="#8DAEF7"/>
<path d="M47.1408 29.4554C47.161 36.1031 43.2222 41.5043 38.3593 41.519C33.4974 41.5338 29.5504 36.1565 29.5302 29.5088C29.4969 18.5306 36.3514 27.4993 41.2143 27.4846C46.0761 27.4698 47.2377 20.0383 47.1408 29.4554V29.4554Z" fill="#FCFDFF"/>
<path d="M38.4882 35.8918C38.9603 35.8506 39.2867 35.1887 39.2201 34.4128C39.1524 33.6368 38.7151 33.0415 38.244 33.0817C37.773 33.1239 37.4455 33.7858 37.5132 34.5607C37.5808 35.3367 38.0171 35.933 38.4882 35.8918ZM44.2722 34.5882C44.4106 33.8218 44.1454 33.1321 43.679 33.0489C43.2137 32.9646 42.7238 33.5179 42.5854 34.2842C42.448 35.0496 42.7132 35.7393 43.1785 35.8235C43.6439 35.9078 44.1338 35.3545 44.2722 34.5882Z" fill="#1C1B29"/>
<path d="M63.9688 112.047C60.3933 112.813 49.6554 102.648 49.6554 102.648C52.631 111.904 53.1433 114.673 53.6544 117.063C54.1654 119.454 53.864 119.934 53.6682 121.621C53.4714 123.309 53.4712 123.259 54.4853 125.371C55.4993 127.482 56.1597 128.966 56.3639 130.049C56.4412 130.678 56.4177 131.315 56.2941 131.937L11.2737 132.073C11.2737 132.073 11.0432 131.067 11.9924 128.269C12.9416 125.471 15.1263 123.148 16.3296 121.381C17.5338 119.615 17.4589 119.792 17.1293 119.063C15.607 115.492 18.053 116.265 19.0699 110.899C20.0858 105.532 20.3366 79.9477 22.5967 69.4918C24.8577 59.035 28.3526 56.5562 28.5783 47.9189C24.3082 43.9542 13.7208 33.6363 15.8555 31.2881C18.2806 33.547 25.5395 34.6336 31.4598 34.5657C31.9792 34.5567 32.4881 34.7117 32.9142 35.0087C33.3403 35.3057 33.6619 35.7296 33.8331 36.2199C34.85 39.2633 37.4129 45.274 41.4167 44.4807C45.4205 43.6883 48.3708 36.5277 49.1952 33.9316C49.3689 33.3649 49.7318 32.8749 50.2231 32.5434C50.7593 32.1427 51.1972 31.6252 51.5036 31.0301C52.0735 35.9882 43.8746 49.1566 43.8746 49.1566C43.8746 49.1566 45.9695 66.9783 50.0689 72.8324C54.1673 78.6875 65.631 78.6527 65.9243 84.242C66.2187 89.8302 67.5188 111.28 63.9688 112.047V112.047Z" fill="#BD4070"/>
<path d="M29.1237 36.6871C26.1502 36.5197 22.1435 36.028 15.7095 32.8501C16.753 36.5982 24.9659 44.5306 28.5785 47.919C28.5322 50.598 28.0554 53.2521 27.1663 55.7796C30.4297 60.3777 34.3513 57.3693 35.0963 70.3097C35.4149 75.8234 39.4932 83.1381 43.7499 91.057C48.0065 98.9759 48.5416 84.3947 48.3434 77.2192C48.2306 73.3164 47.4357 68.4844 46.5895 63.879C44.7805 56.9093 43.8747 49.1567 43.8747 49.1567C43.8747 49.1567 49.6164 39.9234 51.16 34.0267C50.767 34.2727 50.4601 34.6346 50.2819 35.0615C48.7297 38.5897 46.9909 42.0328 45.0729 45.3763C43.0922 48.7317 39.394 50.4044 35.1159 43.8206C30.8388 37.2357 32.3238 36.8794 29.1237 36.6871V36.6871Z" fill="#A12C66"/>
<path d="M30.9506 24.3438C35.3916 26.4702 36.9368 29.1856 40.4888 29.0738C44.0409 28.9621 45.4207 27.2455 46.8498 24.9504C46.2666 23.6926 44.6911 27.4741 41.2143 27.4846C37.7374 27.4952 33.1888 22.8511 30.9506 24.3438V24.3438Z" fill="#8DAEF7"/>
</g>
<defs>
<linearGradient id="paint0_linear_64_830" x1="19.2214" y1="37.8296" x2="19.2214" y2="11.2925" gradientUnits="userSpaceOnUse">
<stop stop-color="#7196FF"/>
<stop offset="1" stop-color="#2A5EE8"/>
</linearGradient>
<clipPath id="clip0_64_830">
<rect x="0.697754" y="0.614258" width="37.0474" height="37.0474" rx="18.5237" transform="rotate(-0.173721 0.697754 0.614258)" fill="white"/>
</clipPath>
</defs>
</svg>
